<?xml version="1.0" encoding="utf-8"?>
<!-- Generator: Adobe Illustrator 14.0.0, SVG Export Plug-In . SVG Version: 6.00 Build 43363)  -->
<!DOCTYPE svg PUBLIC "-//W3C//DTD SVG 1.1//EN" "http://www.w3.org/Graphics/SVG/1.1/DTD/svg11.dtd">
<svg version="1.1" id="Layer_1" xmlns="http://www.w3.org/2000/svg" xmlns:xlink="http://www.w3.org/1999/xlink" x="0px" y="0px"
	 width="495.551px" height="1413.368px" viewBox="0 0 495.551 1413.368" enable-background="new 0 0 495.551 1413.368"
	 xml:space="preserve">
<g>
	<path fill="#7BC2B0" d="M382.532,219.781c0.028-1.156,0.043-2.315,0.043-3.478c0-1.163-0.015-2.322-0.043-3.478
		c3.625-3.178,5.788-8.24,5.09-13.973c-0.689-5.737-3.985-10.152-8.261-12.381c-0.498-2.275-1.052-4.528-1.661-6.759
		c2.758-3.957,3.63-9.4,1.577-14.809c-2.052-5.409-6.315-8.903-11.003-10.034c-1.029-2.083-2.108-4.136-3.237-6.157
		c1.724-4.503,1.265-9.993-2.023-14.743c-3.286-4.754-8.259-7.123-13.082-7.098c-1.493-1.771-3.03-3.504-4.609-5.199
		c0.603-4.784-1.151-10.004-5.475-13.835c-4.32-3.832-9.713-4.947-14.39-3.777c-1.871-1.364-3.778-2.682-5.719-3.953
		c-0.555-4.791-3.505-9.443-8.624-12.134c-5.116-2.692-10.622-2.486-14.883-0.23c-2.144-0.876-4.313-1.699-6.509-2.469
		c-1.692-4.516-5.679-8.322-11.296-9.702c-5.618-1.381-10.913,0.147-14.505,3.365c-2.285-0.332-4.587-0.609-6.907-0.829
		c-2.726-3.977-7.5-6.723-13.264-6.725c-5.765,0.002-10.538,2.748-13.264,6.725c-2.319,0.22-4.623,0.497-6.907,0.829
		c-3.593-3.218-8.887-4.746-14.505-3.365c-5.618,1.38-9.604,5.187-11.296,9.702c-2.195,0.77-4.365,1.593-6.508,2.469
		c-4.262-2.256-9.768-2.462-14.884,0.23c-5.118,2.69-8.069,7.343-8.625,12.134c-1.94,1.271-3.847,2.589-5.718,3.953
		c-4.677-1.17-10.07-0.055-14.39,3.777c-4.323,3.831-6.077,9.051-5.475,13.835c-1.579,1.693-3.116,3.428-4.61,5.199
		c-4.821-0.025-9.794,2.343-13.08,7.098c-3.288,4.75-3.747,10.239-2.023,14.743c-1.129,2.021-2.208,4.075-3.237,6.157
		c-4.688,1.131-8.95,4.625-11.002,10.034c-2.053,5.409-1.182,10.852,1.576,14.809c-0.608,2.231-1.163,4.484-1.66,6.759
		c-4.276,2.229-7.571,6.645-8.261,12.381c-0.698,5.733,1.465,10.795,5.09,13.973c-0.029,1.156-0.043,2.315-0.043,3.478
		c0,1.163,0.015,2.322,0.043,3.478c-3.625,3.177-5.788,8.24-5.09,13.974c0.689,5.736,3.985,10.152,8.261,12.381
		c0.498,2.274,1.052,4.527,1.66,6.759c-2.758,3.957-3.629,9.399-1.577,14.809c2.052,5.409,6.314,8.903,11.002,10.034
		c1.029,2.083,2.108,4.136,3.237,6.158c-1.724,4.503-1.264,9.992,2.023,14.743c3.287,4.754,8.259,7.122,13.081,7.097
		c1.494,1.772,3.031,3.505,4.61,5.2c-0.603,4.784,1.151,10.004,5.475,13.834c4.32,3.833,9.713,4.948,14.39,3.778
		c1.871,1.364,3.778,2.682,5.718,3.953c0.556,4.791,3.507,9.443,8.625,12.134c5.116,2.692,10.622,2.485,14.884,0.23
		c2.143,0.876,4.313,1.699,6.508,2.469c1.693,4.516,5.678,8.322,11.296,9.702c5.618,1.38,10.912-0.148,14.505-3.366
		c2.285,0.333,4.587,0.609,6.907,0.83c2.726,3.976,7.5,6.723,13.264,6.725c5.765-0.002,10.539-2.749,13.265-6.725
		c2.319-0.22,4.622-0.497,6.907-0.83c3.592,3.218,8.887,4.746,14.505,3.366c5.618-1.379,9.604-5.186,11.296-9.702
		c2.195-0.771,4.365-1.593,6.508-2.469c4.262,2.256,9.769,2.462,14.884-0.23c5.119-2.691,8.069-7.344,8.624-12.134
		c1.941-1.271,3.848-2.589,5.719-3.953c4.677,1.17,10.07,0.055,14.39-3.778c4.323-3.831,6.077-9.05,5.475-13.834
		c1.579-1.694,3.116-3.428,4.609-5.2c4.822,0.025,9.795-2.343,13.082-7.097c3.288-4.75,3.747-10.24,2.022-14.743
		c1.129-2.021,2.208-4.075,3.237-6.158c4.688-1.131,8.951-4.625,11.003-10.034c2.053-5.409,1.181-10.852-1.577-14.809
		c0.608-2.231,1.163-4.484,1.661-6.759c4.276-2.229,7.572-6.645,8.261-12.381C388.32,228.021,386.157,222.958,382.532,219.781z"/>
	<path fill="#6FBEAA" d="M335.154,124.9c-24.415-24.414-56.875-37.86-91.402-37.86c-34.527,0-66.987,13.446-91.402,37.86
		c-24.415,24.415-37.86,56.875-37.86,91.402s13.445,66.988,37.86,91.402c24.415,24.415,56.875,37.86,91.402,37.86
		c34.527,0,66.988-13.446,91.402-37.86c24.414-24.414,37.86-56.875,37.86-91.402S359.568,149.315,335.154,124.9z M347.227,192.795
		L347.227,192.795L347.227,192.795L347.227,192.795z M346.356,192.284l-21.034,25.82c-0.208,0.255-0.277,0.597-0.185,0.913
		l9.263,31.676l0.49-0.105l0.01,0.033l0,0l-0.48,0.139c1.093,3.797-0.298,5.593-0.948,6.189c-0.442,0.415-1.227,0.932-2.491,1.077
		c-0.218,0.025-0.445,0.038-0.675,0.038c-0.873,0-1.829-0.181-2.843-0.538c-0.05-0.017-0.092-0.032-0.133-0.048l-30.995-12
		c-0.117-0.045-0.239-0.067-0.361-0.067c-0.198,0-0.395,0.059-0.563,0.174l-27.28,18.604c-0.089,0.06-0.162,0.11-0.226,0.151
		c-1.179,0.766-2.316,1.215-3.387,1.339c-0.205,0.023-0.409,0.035-0.606,0.035c-0.762,0-1.452-0.172-2.052-0.512
		c-0.77-0.44-2.546-1.896-2.339-5.851c0-0.004,0-0.008,0-0.012c0.001-0.008,0.001-0.017,0.002-0.025l1.821-32.953
		c0.018-0.329-0.126-0.645-0.387-0.847l-26.11-20.178c-0.005-0.004-0.05-0.039-0.055-0.042l-0.042-0.034
		c-3.083-2.436-2.998-4.711-2.818-5.577c0.172-0.842,0.961-2.91,4.555-3.963c0.114-0.035,0.219-0.063,0.32-0.09l31.905-8.448
		c0.318-0.084,0.575-0.32,0.686-0.63l11.125-31.066c1.347-3.774,3.57-4.422,4.464-4.524c0.107-0.013,0.238-0.021,0.388-0.021
		c1,0,2.956,0.41,4.817,3.159c0.057,0.083,0.111,0.164,0.163,0.246l17.899,27.734c0.179,0.277,0.482,0.448,0.811,0.458l32.979,0.978
		c0.114,0.003,0.223,0.008,0.331,0.015c3.769,0.21,4.997,2.05,5.351,2.831c0.354,0.774,0.934,2.886-1.285,5.82l-0.051,0.066
		l0.424,0.383l-0.069-0.028L346.356,192.284z M269.126,131.194c-0.078,0.018-0.152,0.033-0.228,0.047
		c-0.087,0.017-0.166,0.028-0.249,0.04c-2.196,0.303-4.395,0.703-6.57,1.193c-32.764,7.385-57.266,34.755-60.97,68.107
		c-0.005,0.046-0.007,0.093-0.006,0.14c0.002,0.087,0.001,0.175-0.004,0.263c-0.324,5.616,1.869,6.358,5.851,7.704
		c2.388,0.807,5.093,1.722,7.137,3.954c2.793,3.056,3.964,6.786,3.211,10.23c-0.523,2.398-1.94,4.525-4.209,6.324
		c-0.398,0.315-0.496,0.878-0.229,1.31c0.423,0.683,0.681,1.515,0.766,2.473c0.292,3.265-1.351,6.626-4.286,8.771
		c-0.805,0.587-1.131,1.561-0.831,2.479c0.379,1.161,1.586,1.911,3.075,1.911c0.704,0,1.455-0.163,2.231-0.482
		c0.464-0.191,0.958-0.289,1.465-0.289c1.505,0,3.133,0.85,4.354,2.275c1.665,1.942,2.195,4.904,1.29,7.204
		c-1.28,3.25-0.521,6.482,2.255,9.607c0.011,0.013,0.023,0.025,0.035,0.038c14.971,15.206,34.851,23.581,55.979,23.581
		c5.854,0,11.747-0.659,17.515-1.959c1.797-0.405,3.611-0.881,5.392-1.417l0.141-0.041c0.135-0.038,0.222-0.06,0.309-0.08
		c0.426-0.096,0.859-0.144,1.291-0.144c2.248,0,4.296,1.261,5.344,3.291c1.246,2.409,0.691,5.28-1.38,7.144l-0.066,0.057
		c-0.095,0.081-0.189,0.158-0.259,0.213c-12.05,9.781-25.881,16.478-41.119,19.912c-7.261,1.637-14.687,2.467-22.069,2.467
		c-46.469,0-87.615-32.914-97.836-78.262c-5.882-26.093-1.228-52.95,13.104-75.623c14.333-22.672,36.597-38.398,62.691-44.279
		c7.34-1.654,14.796-2.493,22.162-2.493c8.003,0,16.058,0.989,23.94,2.941c0.116,0.027,0.211,0.052,0.307,0.08
		c2.965,0.852,4.833,3.212,4.756,6.012C273.349,128.461,271.584,130.641,269.126,131.194z M234.214,206.11L234.214,206.11
		L234.214,206.11L234.214,206.11z M307.563,289.066c-0.596-1.554-2.084-2.599-3.704-2.599c-0.344,0-0.69,0.047-1.029,0.139
		l-0.081,0.023l-0.071,0.021c-1.829,0.548-3.684,1.036-5.519,1.45c-5.873,1.324-11.875,1.995-17.838,1.995
		c-21.486,0-42.489-8.836-57.621-24.243c-4.185-4.66-3.763-8.965-2.666-11.75c0.558-1.417,0.299-3.36-0.63-4.725
		c-0.79-1.16-1.959-1.799-3.293-1.799c-0.654,0-1.341,0.154-2.042,0.459c-2.248,0.975-4.709,1.489-7.118,1.489
		c-6.147,0-11.177-3.203-12.285-7.804c0.003-0.069,0.01-0.125,0.016-0.17c0.025,0.005,0.045,0.01,0.058,0.013
		c2.314,0.517,4.462,0.779,6.389,0.779c8.946,0,11.43-5.585,11.494-8.538c0.039-1.807-0.711-3.054-1.867-3.104
		c-0.913-0.041-1.592-0.498-1.852-0.793c4.244-1.875,6.736-4.388,7.409-7.471c0.61-2.791-0.384-5.861-2.726-8.423
		c-1.688-1.845-4.025-2.634-6.285-3.398c-4.103-1.387-7.646-2.584-7.232-9.749c0.004-0.077,0-0.153-0.013-0.226
		c3.696-34.368,28.812-62.543,62.576-70.153c2.236-0.504,4.492-0.914,6.705-1.219c0.081-0.011,0.134-0.02,0.183-0.029
		c1.598-0.285,2.773-1.642,2.861-3.307c0.076-1.438-0.743-3.375-3.301-4.1c-0.052-0.017-0.13-0.037-0.212-0.054
		c-7.646-1.898-15.557-2.866-23.471-2.866c-7.254,0-14.553,0.816-21.695,2.426c-52.86,11.915-86.172,64.611-74.258,117.469
		c4.934,21.887,17.327,41.586,34.899,55.468c17.317,13.681,38.936,21.216,60.875,21.216c7.256,0,14.557-0.816,21.7-2.427
		c14.931-3.365,28.481-9.926,40.275-19.501c0.069-0.053,0.152-0.122,0.231-0.188C307.732,292.2,308.149,290.596,307.563,289.066z
		 M192.88,213.967c-0.067,1.565-1.344,2.79-2.907,2.79c-0.044,0-0.088-0.001-0.132-0.003c-1.607-0.071-2.857-1.437-2.786-3.042
		c0.069-1.564,1.348-2.789,2.912-2.789c0.042,0,0.085,0,0.128,0.002c0.777,0.035,1.496,0.37,2.022,0.945
		S192.915,213.189,192.88,213.967z M345.031,191.112c-0.009,0.011-0.019,0.023-0.028,0.035c-0.005,0.007-0.011,0.014-0.017,0.021
		l-21.952,26.948l9.671,33.073c0.003,0.013,0.007,0.025,0.01,0.038c0.829,2.859-0.046,4.059-0.458,4.438
		c-0.252,0.236-0.843,0.631-1.954,0.631c-0.677,0-1.446-0.151-2.269-0.444c-0.023-0.007-0.047-0.016-0.07-0.024l-32.346-12.524
		l-28.46,19.409c-0.075,0.052-0.149,0.103-0.218,0.147c-1.109,0.72-2.125,1.085-3.021,1.085c-0.572,0-0.954-0.149-1.174-0.275
		c-0.49-0.28-1.612-1.25-1.457-4.226c0-0.008,0-0.017,0.001-0.025c0-0.002,0-0.005,0-0.008l1.902-34.405l-27.265-21.071
		l-0.087-0.068c-2.308-1.824-2.289-3.288-2.176-3.821c0.106-0.533,0.647-1.856,3.324-2.63c0.075-0.024,0.154-0.046,0.276-0.079
		l33.309-8.819l11.616-32.439c1.013-2.837,2.435-3.297,3-3.363c0.059-0.007,0.127-0.012,0.205-0.012
		c0.643,0,1.934,0.313,3.345,2.397c0.045,0.065,0.09,0.135,0.137,0.207l18.683,28.952l34.432,1.02
		c0.101,0.002,0.201,0.006,0.264,0.012c2.819,0.147,3.645,1.314,3.868,1.808C346.339,187.582,346.672,188.94,345.031,191.112z"/>
	<path fill="#CAE4D2" d="M243.752,88.041c-70.837,0-128.262,57.425-128.262,128.262c0,70.837,57.425,128.263,128.262,128.263
		c70.837,0,128.262-57.425,128.262-128.263C372.014,145.466,314.589,88.041,243.752,88.041z M308.477,295.612
		c-0.03,0.027-0.061,0.054-0.091,0.08c-0.1,0.085-0.204,0.169-0.28,0.23c-12.162,9.872-26.131,16.636-41.521,20.105
		c-54.492,12.283-108.818-22.058-121.101-76.551c-12.282-54.49,22.059-108.815,76.551-121.097c15.54-3.503,31.206-3.35,46.562,0.453
		c0.116,0.026,0.227,0.056,0.34,0.088c3.421,0.983,5.572,3.728,5.482,7.001c-0.083,3.024-2.169,5.594-5.073,6.248
		c-0.087,0.02-0.175,0.038-0.265,0.054c-0.098,0.019-0.196,0.034-0.298,0.048c-0.01,0.001-0.021,0.003-0.032,0.004
		c-2.127,0.293-4.298,0.688-6.451,1.174c-32.407,7.304-56.537,34.29-60.196,67.242c0.003,0.116,0.001,0.234-0.005,0.351
		c-0.28,4.855,1.205,5.357,5.174,6.699c2.501,0.846,5.337,1.805,7.554,4.226c3.016,3.3,4.274,7.352,3.451,11.119
		c-0.437,2.001-1.618,4.559-4.565,6.895c0.476,0.768,0.807,1.736,0.912,2.911c0.3,3.354-1.252,7.154-4.692,9.667
		c-1.438,1.05,0.143,3.561,3.505,2.175c2.497-1.029,5.237,0.251,6.959,2.26c1.895,2.211,2.496,5.591,1.461,8.221
		c-1.131,2.872-0.434,5.756,2.072,8.577c19.023,19.322,46.142,27.303,72.562,21.347c1.773-0.399,3.559-0.868,5.324-1.398l0.15-0.043
		c0.022-0.007,0.044-0.013,0.066-0.02c0.102-0.027,0.204-0.053,0.305-0.075c3.083-0.695,6.267,0.812,7.741,3.664
		C311.534,290.086,310.891,293.44,308.477,295.612z M347.237,192.781c-0.021,0.028-0.042,0.056-0.064,0.084
		c-0.014,0.017-0.027,0.034-0.042,0.051l-21.034,25.82l9.263,31.676c0.008,0.023,0.013,0.046,0.02,0.07
		c1.247,4.333-0.463,6.497-1.232,7.203c-0.546,0.512-1.52,1.158-3.054,1.334c-1.199,0.138-2.533-0.046-3.964-0.55
		c-0.056-0.019-0.112-0.039-0.167-0.061l-30.99-11.998l-27.28,18.604c-0.088,0.06-0.175,0.119-0.249,0.166
		c-1.305,0.848-2.587,1.35-3.813,1.491c-1.519,0.175-2.608-0.227-3.266-0.6c-0.935-0.535-3.082-2.266-2.845-6.776
		c0.001-0.005,0.001-0.011,0.001-0.016c0-0.007,0-0.013,0.001-0.021l1.821-32.953l-26.11-20.178c-0.014-0.01-0.026-0.021-0.04-0.03
		l-0.073-0.059c-3.501-2.766-3.391-5.49-3.17-6.558c0.214-1.042,1.154-3.519,5.253-4.72c0.115-0.035,0.233-0.068,0.347-0.098
		l31.903-8.448l11.125-31.066c1.536-4.304,4.211-5.057,5.291-5.181c1.041-0.12,3.724-0.01,6.148,3.57
		c0.06,0.087,0.121,0.178,0.179,0.27l17.896,27.729l32.979,0.978c0.125,0.003,0.248,0.009,0.369,0.017
		c4.3,0.24,5.767,2.475,6.193,3.416C349.062,186.88,349.781,189.417,347.237,192.781z"/>
	<path fill="#D1E8D8" d="M333.742,126.311c-24.04-24.03-56-37.27-89.99-37.27c-33.99,0-65.95,13.24-89.99,37.27
		c-24.03,24.04-37.27,56-37.27,89.99c0,34,13.24,65.95,37.27,89.99c24.04,24.04,56,37.28,89.99,37.28
		c33.99,0,65.95-13.24,89.99-37.28c24.03-24.04,37.27-55.99,37.27-89.99C371.012,182.311,357.772,150.35,333.742,126.311z
		 M309.143,296.36c-0.03,0.03-0.07,0.06-0.11,0.1c-0.11,0.09-0.22,0.18-0.31,0.24c-12.27,9.97-26.38,16.8-41.92,20.3
		c-7.4,1.67-14.98,2.52-22.51,2.52c-47.39,0-89.36-33.57-99.78-79.82c-6-26.62-1.26-54.01,13.36-77.13
		c14.62-23.13,37.33-39.17,63.94-45.17c7.49-1.68,15.09-2.54,22.6-2.54c8.17,0,16.39,1.01,24.42,3c0.12,0.03,0.25,0.06,0.38,0.1
		c3.87,1.11,6.31,4.25,6.21,7.99c-0.1,3.48-2.51,6.44-5.86,7.2c-0.09,0.02-0.2,0.04-0.3,0.06c-0.11,0.02-0.22,0.04-0.35,0.05
		c-0.01,0-0.06,0.01-0.07,0.01c-2.06,0.29-4.2,0.68-6.32,1.15c-31.91,7.2-55.78,33.84-59.42,66.32c0,0.12,0,0.24-0.01,0.36
		c-0.23,4.09,0.58,4.37,4.5,5.69c2.62,0.89,5.58,1.89,7.97,4.5c3.24,3.55,4.58,7.92,3.69,12.01c-0.4,1.83-1.47,4.47-4.28,6.93
		c0.35,0.77,0.56,1.63,0.65,2.57c0.35,3.96-1.6,8.01-5.1,10.57c-0.15,0.11-0.13,0.19-0.11,0.24c0.07,0.21,0.44,0.53,1.17,0.53
		c0.45,0,0.94-0.11,1.47-0.33c0.71-0.29,1.46-0.44,2.23-0.44c2.08,0,4.28,1.11,5.87,2.97c2.13,2.48,2.8,6.28,1.64,9.24
		c-1,2.52-0.38,4.98,1.87,7.53c14.59,14.81,33.95,22.96,54.53,22.96c5.71,0,11.46-0.64,17.08-1.91c1.75-0.39,3.52-0.86,5.25-1.38
		l0.16-0.04c0.01,0,0.08-0.03,0.09-0.03c0.12-0.03,0.23-0.06,0.35-0.08c0.56-0.13,1.14-0.2,1.72-0.2c3,0,5.73,1.68,7.12,4.38
		C312.632,290.041,311.902,293.87,309.143,296.36z M347.952,193.49l-0.82-0.57l0.77,0.63l-20.7,25.41l9.12,31.17
		c0,0.01,0.01,0.06,0.02,0.07c1.4,4.87-0.59,7.37-1.52,8.22c-0.65,0.61-1.81,1.38-3.61,1.59c-0.3,0.04-0.6,0.05-0.91,0.05
		c-1.1,0-2.28-0.22-3.5-0.65c-0.06-0.02-0.13-0.04-0.2-0.07l-30.5-11.81l-26.84,18.31c-0.11,0.07-0.2,0.13-0.28,0.18
		c-1.43,0.93-2.85,1.48-4.23,1.64c-0.29,0.04-0.57,0.05-0.84,0.05c-1.1,0-2.15-0.26-3.04-0.77c-1.1-0.63-3.61-2.63-3.35-7.7
		c0-0.01,0-0.01,0-0.02c0-0.01,0-0.02,0-0.02l1.8-32.43l-25.7-19.85c0-0.01-0.05-0.04-0.05-0.05l-0.08-0.05
		c-3.94-3.12-3.77-6.31-3.52-7.54c0.25-1.2,1.32-4.12,5.95-5.48c0.12-0.04,0.25-0.07,0.38-0.11l31.39-8.31l10.95-30.57
		c1.72-4.83,4.85-5.69,6.11-5.84c0.2-0.02,0.41-0.03,0.62-0.03c1.4,0,4.1,0.52,6.48,4.04c0.06,0.09,0.13,0.19,0.19,0.29l17.61,27.28
		l32.45,0.96c0.14,0.01,0.27,0.01,0.41,0.02c4.83,0.27,6.53,2.89,7.03,4c0.5,1.1,1.36,4.06-1.51,7.85L347.952,193.49z"/>
	<path fill="#F9E0DF" d="M345.209,187.512c-0.138-0.305-0.803-1.107-3.01-1.223c-0.074-0.006-0.152-0.009-0.23-0.01l-34.968-1.036
		l-18.968-29.394c-0.041-0.063-0.081-0.124-0.121-0.182c-1.245-1.84-2.275-1.999-2.61-1.959c-0.347,0.041-1.369,0.453-2.173,2.706
		l-11.794,32.935l-33.817,8.954c-0.076,0.021-0.151,0.04-0.222,0.063c-2.123,0.614-2.588,1.546-2.654,1.875
		c-0.071,0.336,0,1.406,1.815,2.84c0.029,0.022,0.053,0.042,0.082,0.064l27.677,21.39l-1.931,34.93c0,0.006-0.002,0.014-0.001,0.022
		c-0.125,2.374,0.652,3.141,0.954,3.313c0.292,0.166,1.304,0.422,3.155-0.78c0.062-0.04,0.126-0.084,0.192-0.13l28.902-19.71
		l32.836,12.714c0.008,0.002,0.016,0.005,0.024,0.007c2.059,0.735,2.983,0.259,3.227,0.032c0.256-0.236,0.841-1.161,0.175-3.443
		c0-0.007-0.005-0.014-0.005-0.021l-9.817-33.574l-0.001-0.004l22.284-27.355c0.006-0.012,0.015-0.02,0.022-0.028
		C345.518,188.81,345.347,187.814,345.209,187.512z M301.479,207.472c1.705-0.196,3.245,1.025,3.441,2.731
		c0.196,1.706-1.024,3.249-2.73,3.445c-1.707,0.197-3.25-1.029-3.447-2.734C298.549,209.208,299.773,207.667,301.479,207.472z
		 M281.036,209.825c1.705-0.196,3.245,1.026,3.442,2.731c0.197,1.705-1.025,3.25-2.731,3.446c-1.705,0.196-3.25-1.03-3.446-2.735
		C278.105,211.562,279.331,210.021,281.036,209.825z M293.989,232.375c-8.674,0.999-14.383-4.61-14.937-10.959l0.004-0.001
		c-0.045-1.055,0.764-1.73,1.696-0.936h0.003c3.982,3.367,9.614,3.031,12.179,2.736c2.565-0.295,8.127-1.252,11.238-5.433
		c0.725-0.985,1.672-0.512,1.868,0.525h0.003C306.949,224.617,302.662,231.376,293.989,232.375z"/>
	<path fill="#FBE7E5" d="M344.292,187.9c-0.08-0.11-0.67-0.53-2.14-0.61c-0.09-0.01-0.15-0.01-0.2-0.01l-34.98-1.04
		c-0.33-0.01-0.63-0.18-0.81-0.46l-18.97-29.39c-0.03-0.05-0.07-0.1-0.1-0.15c-0.82-1.21-1.48-1.51-1.68-1.54
		c-0.19,0.07-0.8,0.54-1.34,2.05l-11.8,32.94c-0.11,0.31-0.36,0.54-0.68,0.63l-33.82,8.95c-0.08,0.02-0.12,0.03-0.17,0.05
		c-1.45,0.42-1.92,0.97-1.99,1.14c0,0.15,0.24,0.87,1.47,1.84l0.04,0.03l27.71,21.41c0.26,0.21,0.4,0.52,0.38,0.85l-1.93,34.93
		c0,0.01,0,0.01,0,0.02c-0.08,1.55,0.28,2.22,0.45,2.39c0.03,0,0.09,0.01,0.19,0.01c0.28,0,0.91-0.09,1.93-0.76
		c0.05-0.03,0.11-0.07,0.16-0.11l28.91-19.72c0.17-0.11,0.37-0.17,0.57-0.17c0.12,0,0.24,0.02,0.36,0.07l32.81,12.7
		c0.65,0.24,1.19,0.35,1.64,0.35c0.44,0,0.61-0.12,0.61-0.12c0.1-0.12,0.33-0.86-0.12-2.41c-0.01-0.01-0.01-0.02-0.01-0.04
		l-9.82-33.55c-0.09-0.32-0.02-0.66,0.19-0.92l22.28-27.35c0-0.01,0.01-0.02,0.02-0.03C344.292,188.76,344.342,188.07,344.292,187.9
		z M298.612,208c0.69-0.86,1.66-1.4,2.75-1.52c0.16-0.02,0.32-0.03,0.48-0.03c2.08,0,3.83,1.56,4.07,3.64
		c0.26,2.25-1.36,4.29-3.61,4.55c-0.16,0.02-0.32,0.03-0.47,0.03c-2.09,0-3.84-1.57-4.08-3.64
		C297.623,209.94,297.932,208.86,298.612,208z M280.922,208.83c0.16-0.02,0.32-0.03,0.47-0.03c2.09,0,3.84,1.57,4.08,3.64
		c0.13,1.09-0.18,2.17-0.86,3.03s-1.66,1.4-2.75,1.52c-0.16,0.02-0.32,0.03-0.47,0.03c-2.09,0-3.85-1.56-4.08-3.64
		C277.052,211.13,278.672,209.09,280.922,208.83z M304.462,227.86c-2.35,3.05-6.03,5.01-10.36,5.51c-0.7,0.08-1.41,0.12-2.09,0.12
		c-8.48,0-13.44-6.03-13.96-11.99c0-0.05,0-0.1,0-0.15c0-0.66,0.21-1.25,0.61-1.66c0.34-0.36,0.8-0.56,1.29-0.56
		c0.34,0,0.84,0.1,1.39,0.54c0.02,0.01,0.04,0.03,0.06,0.04c2.1,1.78,5,2.68,8.62,2.68c0.89,0,1.81-0.06,2.8-0.17
		c4.87-0.56,8.51-2.3,10.55-5.04c0.45-0.6,1.04-0.94,1.68-0.94c0.92,0,1.71,0.73,1.95,1.78c0.02,0.05,0.03,0.1,0.03,0.15
		C307.522,221.58,306.583,225.11,304.462,227.86z"/>
	<path fill="#F5DE87" d="M303.092,287.571c-0.046,0.014-0.089,0.026-0.132,0.039c-1.83,0.549-3.69,1.04-5.582,1.466
		c-28.671,6.462-57.211-2.994-76.393-22.523c-4.819-5.363-3.875-10.298-2.883-12.817c0.876-2.224-0.825-6.437-4.636-4.781
		c-8.972,3.89-19.154,0.206-20.805-7.131c0.015-1.453,0.807-1.345,1.299-1.233c17.598,3.933,17.878-8.797,15.751-8.889
		c-2.024-0.09-3.652-1.77-2.576-2.55c9.797-4.144,8.062-10.797,4.712-14.461c-4.421-4.83-14.473-1.825-13.777-13.88l-0.037-0.003
		c3.535-33.943,28.247-63.375,63.379-71.294c2.266-0.511,4.53-0.923,6.789-1.234c0.044-0.007,0.086-0.011,0.129-0.021
		c2.548-0.439,3.109-4.433-0.523-5.463c-0.046-0.015-0.092-0.026-0.14-0.036c-14.225-3.531-29.472-3.888-44.747-0.445
		c-52.407,11.813-85.314,63.871-73.502,116.274c11.813,52.407,63.87,85.314,116.278,73.501
		c15.112-3.406,28.601-10.157,39.865-19.302c0.076-0.059,0.147-0.118,0.216-0.176C308.261,290.38,305.875,286.813,303.092,287.571z
		 M189.797,217.753c-2.161-0.096-3.837-1.925-3.741-4.086c0.095-2.161,1.925-3.834,4.083-3.741c2.161,0.096,3.837,1.925,3.74,4.085
		C193.787,216.173,191.959,217.849,189.797,217.753z"/>
	<path fill="#F6E091" d="M305.692,289.78c-0.29-0.77-1.05-1.31-1.83-1.31c-0.17,0-0.34,0.02-0.51,0.07l-0.05,0.01l-0.06,0.02
		c-1.86,0.56-3.76,1.06-5.64,1.48c-6.02,1.36-12.17,2.05-18.28,2.05c-22.02,0-43.54-9.06-59.05-24.85
		c-5.19-5.77-4.17-11.17-3.1-13.88c0.32-0.81,0.14-2.04-0.42-2.87c-0.42-0.61-0.97-0.92-1.64-0.92c-0.38,0-0.8,0.1-1.25,0.29
		c-2.5,1.08-5.23,1.66-7.91,1.66c-7.14,0-13.01-3.9-14.27-9.49c-0.01-0.07-0.02-0.15-0.02-0.23c0.02-2.11,1.43-2.28,1.86-2.28
		c0.26,0,0.49,0.05,0.66,0.09c2.16,0.48,4.16,0.72,5.95,0.72c6.06,0,8.22-2.77,8.98-4.43c0.69-1.53,0.55-2.83,0.35-3.22
		c-1.67-0.15-3.22-1.17-3.59-2.38c-0.23-0.76,0.03-1.5,0.68-1.97c0.06-0.04,0.12-0.08,0.19-0.11c3.79-1.6,6.08-3.75,6.62-6.22
		c0.46-2.11-0.38-4.6-2.25-6.65c-1.34-1.46-3.34-2.13-5.45-2.85c-4.22-1.42-9-3.04-8.6-11.51c-0.03-0.09-0.03-0.2-0.02-0.3
		c3.68-35.34,29.46-64.34,64.15-72.16c2.29-0.52,4.6-0.94,6.87-1.25l0.22,0.98l-0.15-0.99c0.83-0.15,1.22-0.83,1.25-1.45
		c0.05-0.96-0.64-1.73-1.85-2.07c-0.01-0.01-0.09-0.03-0.11-0.03c-7.52-1.87-15.27-2.82-23.03-2.82c-7.1,0-14.25,0.8-21.25,2.38
		c-51.79,11.67-84.42,63.3-72.75,115.08c4.84,21.44,16.98,40.74,34.19,54.34c16.97,13.4,38.14,20.78,59.63,20.78
		c7.11,0,14.27-0.8,21.26-2.38c14.63-3.29,27.91-9.72,39.46-19.1c0.08-0.06,0.14-0.11,0.2-0.16
		C306.002,291.061,305.862,290.21,305.692,289.78z M189.752,218.75c-2.71-0.12-4.82-2.42-4.7-5.13c0.12-2.63,2.28-4.7,4.91-4.7
		c0.08,0,0.15,0,0.22,0.01c1.31,0.06,2.52,0.62,3.41,1.59c0.89,0.97,1.34,2.22,1.29,3.54c-0.12,2.63-2.27,4.7-4.91,4.7
		C189.902,218.76,189.822,218.76,189.752,218.75z"/>
</g>
</svg>
