<?xml version="1.0" standalone="no"?>
<!DOCTYPE svg PUBLIC "-//W3C//DTD SVG 20010904//EN"
 "http://www.w3.org/TR/2001/REC-SVG-20010904/DTD/svg10.dtd">
<svg version="1.0" xmlns="http://www.w3.org/2000/svg"
 width="500.000000pt" height="500.000000pt" viewBox="0 0 500.000000 500.000000"
 preserveAspectRatio="xMidYMid meet">
<metadata>
Created by potrace 1.16, written by Peter Selinger 2001-2019
</metadata>
<g transform="translate(0.000000,500.000000) scale(0.100000,-0.100000)"
fill="#000000" stroke="none">
<path d="M1392 3292 c-55 -6 -63 -30 -69 -210 -7 -197 0 -266 32 -298 29 -29
49 -30 75 -4 16 16 20 33 20 93 0 89 13 116 68 142 212 101 121 302 -126 277z"/>
<path d="M2830 3105 l0 -185 245 0 245 0 -2 183 -3 182 -242 3 -243 2 0 -185z
m480 15 l0 -150 -235 0 -235 0 0 150 0 150 235 0 235 0 0 -150z"/>
<path d="M3029 3195 c-64 -35 -56 -131 14 -154 41 -14 78 -3 101 31 51 72 -37
167 -115 123z"/>
<path d="M2335 3200 c-46 -51 -122 -430 -96 -479 24 -43 70 -16 86 52 9 35 20
34 35 -2 16 -39 55 -75 74 -68 23 9 20 32 -9 82 l-26 43 36 21 c67 39 34 102
-35 66 -18 -9 -34 -14 -37 -11 -4 3 6 61 20 128 15 68 27 132 27 144 0 44 -44
58 -75 24z"/>
<path d="M1691 3113 c-20 -52 -31 -118 -31 -196 0 -91 19 -147 49 -147 25 0
37 21 46 85 11 72 33 121 67 150 l29 25 38 -22 c47 -27 71 -19 71 23 0 22 -10
41 -34 65 -41 41 -73 43 -116 8 -17 -15 -32 -25 -33 -23 -2 2 -8 16 -15 32 -8
19 -19 27 -36 27 -16 0 -27 -8 -35 -27z"/>
<path d="M2050 3044 c-45 -39 -70 -94 -70 -156 1 -56 11 -77 48 -97 25 -13 95
0 108 21 5 7 12 -4 19 -28 8 -28 16 -39 30 -39 16 0 21 9 27 50 13 102 9 184
-12 224 -10 21 -26 41 -35 45 -37 14 -84 6 -115 -20z"/>
</g>
</svg>
