<?xml version="1.0" encoding="utf-8"?>
<!-- Generator: Adobe Illustrator 14.0.0, SVG Export Plug-In . SVG Version: 6.00 Build 43363)  -->
<!DOCTYPE svg PUBLIC "-//W3C//DTD SVG 1.1//EN" "http://www.w3.org/Graphics/SVG/1.1/DTD/svg11.dtd">
<svg version="1.1" id="Layer_1" xmlns="http://www.w3.org/2000/svg" xmlns:xlink="http://www.w3.org/1999/xlink" x="0px" y="0px"
	 width="495.551px" height="1413.368px" viewBox="0 0 495.551 1413.368" enable-background="new 0 0 495.551 1413.368"
	 xml:space="preserve">
<path fill="#F5DE87" d="M243.752,724.146c0.005-1.609-1.587-3.071-3.358-2.587c-0.042,0.012-0.08,0.023-0.119,0.034
	c-1.648,0.496-3.325,0.938-5.03,1.321c-25.836,5.824-51.554-2.698-68.839-20.294c-4.342-4.835-3.492-9.281-2.598-11.549
	c0.789-2.004-0.744-5.801-4.178-4.31c-8.084,3.506-17.26,0.187-18.748-6.426c0.013-1.31,0.728-1.211,1.171-1.111
	c15.858,3.543,16.11-7.927,14.194-8.009c-1.824-0.083-3.291-1.595-2.322-2.299c8.829-3.735,7.265-9.729,4.246-13.031
	c-3.984-4.353-13.042-1.646-12.415-12.508l-0.033-0.004c3.186-30.585,25.453-57.106,57.112-64.243
	c2.042-0.459,4.082-0.831,6.117-1.112c0.04-0.005,0.078-0.009,0.116-0.018c1.139-0.196,1.836-1.179,1.853-2.234
	c0.017-1.074-0.673-2.221-2.324-2.689c-0.042-0.014-0.082-0.022-0.125-0.033c-12.819-3.181-26.557-3.502-40.322-0.399
	c-40.642,9.161-68.27,45.18-68.397,85.143c-0.021,6.473,0.68,13.05,2.164,19.632c10.645,47.227,57.554,76.877,104.78,66.232
	c13.617-3.067,25.772-9.152,35.922-17.393c0.068-0.053,0.133-0.107,0.195-0.158C243.471,725.511,243.75,724.815,243.752,724.146z
	 M138.302,658.645c-1.948-0.086-3.458-1.735-3.372-3.682c0.086-1.948,1.735-3.455,3.679-3.372c1.947,0.088,3.458,1.735,3.371,3.682
	C141.897,657.221,140.25,658.731,138.302,658.645z"/>
</svg>
