<?xml version="1.0" encoding="utf-8"?>
<!-- Generator: Adobe Illustrator 14.0.0, SVG Export Plug-In . SVG Version: 6.00 Build 43363)  -->
<!DOCTYPE svg PUBLIC "-//W3C//DTD SVG 1.1//EN" "http://www.w3.org/Graphics/SVG/1.1/DTD/svg11.dtd">
<svg version="1.1" id="Layer_1" xmlns="http://www.w3.org/2000/svg" xmlns:xlink="http://www.w3.org/1999/xlink" x="0px" y="0px"
	 width="495.551px" height="1413.368px" viewBox="0 0 495.551 1413.368" enable-background="new 0 0 495.551 1413.368"
	 xml:space="preserve">
<path fill="#F9E0DF" d="M243.751,428.266c0.005-0.215-0.025-0.375-0.058-0.479c-0.133-0.413-0.867-1.54-3.685-2.015
	c-0.095-0.018-45.05-6.545-45.05-6.545s-20.101-40.725-20.144-40.805c-1.328-2.547-2.627-2.902-3.063-2.902
	c-0.452,0-1.825,0.378-3.191,3.154l-20.015,40.553c0,0-44.954,6.533-45.047,6.551c-2.818,0.477-3.553,1.603-3.687,2.018
	c-0.031,0.092-0.058,0.229-0.06,0.41c-0.007,0.648,0.314,1.855,1.972,3.505c0.033,0.032,32.479,31.658,32.479,31.658l-7.643,44.575
	c0,0.007-0.004,0.017-0.004,0.027c-0.512,3.029,0.374,4.13,0.735,4.395c0.35,0.257,1.612,0.735,4.168-0.537
	c0.084-0.041,40.296-21.177,40.296-21.177l40.293,21.18c0.009,0.004,0.019,0.01,0.03,0.014c2.536,1.247,3.792,0.772,4.139,0.517
	c0.364-0.263,1.251-1.366,0.734-4.394c0-0.01-0.004-0.019-0.004-0.031l-7.646-44.567l-0.001-0.005l32.664-31.838
	c0.009-0.016,0.022-0.024,0.032-0.034C243.417,430.002,243.735,428.898,243.751,428.266z M184.582,446.957
	c2.218,0,4.016,1.799,4.016,4.018c-0.001,2.219-1.797,4.02-4.016,4.021c-2.221,0.001-4.022-1.802-4.023-4.021
	C180.561,448.756,182.361,446.958,184.582,446.957z M157.978,446.958c2.22,0.001,4.017,1.796,4.018,4.016
	c0,2.221-1.797,4.022-4.018,4.023c-2.218,0.001-4.02-1.805-4.02-4.021C153.958,448.757,155.761,446.957,157.978,446.958z
	 M171.282,477.834c-11.288,0-17.792-8.048-17.564-16.285l0.004,0.001c0.099-1.361,1.237-2.107,2.318-0.951l0.004,0
	c4.617,4.913,11.899,5.313,15.237,5.314c3.337,0,10.622-0.407,15.235-5.315c1.077-1.16,2.225-0.413,2.322,0.951l0.004,0
	C189.071,469.786,182.567,477.831,171.282,477.834z"/>
</svg>
